 <?xml version="1.0" encoding="UTF-8"?> <svg xmlns="http://www.w3.org/2000/svg" width="108" height="58" viewBox="0 0 108 58" fill="none"> <path d="M74.8122 15.5532C67.1097 15.5532 61.0366 21.7744 61.0366 29.1807C61.0366 36.7351 67.2578 42.8082 74.8122 42.8082C82.3666 42.8082 88.5878 36.5869 88.5878 29.1807C88.5878 21.7744 82.3666 15.5532 74.8122 15.5532ZM74.8122 37.9201C70.0722 37.9201 66.2209 34.0688 66.2209 29.4769C66.2209 24.7369 70.0722 21.0338 74.8122 21.0338C79.5522 21.0338 83.4035 24.885 83.4035 29.4769C83.4035 34.0688 79.5522 37.9201 74.8122 37.9201Z" fill="#2470B5"></path> <path d="M74.8115 34.0688C77.4777 34.0688 79.5515 31.995 79.5515 29.3288C79.5515 26.6625 77.4777 24.5888 74.8115 24.5888C72.1452 24.5888 70.0715 26.6625 70.0715 29.3288C70.0715 31.995 72.1452 34.0688 74.8115 34.0688Z" fill="#FEC400"></path> <path d="M88.1427 39.6974C88.1427 39.6974 92.5865 33.9205 91.6977 26.5143C93.9196 25.1812 97.919 23.9962 102.363 17.3305C102.363 21.1818 100.733 28.1437 94.9565 32.5874C98.2152 32.2912 100.289 31.4024 104.14 29.3287C103.103 33.328 100.289 39.5493 88.1427 39.6974Z" fill="#2470B5"></path> <path d="M107.992 0C99.4005 8.44313 96.2898 9.62813 79.2554 11.9981C62.0729 14.3681 54.5186 31.5507 54.5186 31.5507V37.3275C55.2592 37.4757 55.7036 38.0682 55.7036 38.8088C55.7036 39.5494 55.2592 40.1419 54.5186 40.29V57.6207C54.5186 57.6207 54.8148 58.0651 55.4073 57.4726C55.1111 50.0663 59.1104 45.4744 61.1842 42.5119C58.2217 37.4757 58.3698 30.6619 58.3698 30.6619C58.3698 30.6619 65.7761 18.3675 81.4773 17.0344C106.659 15.1088 108.14 1.185 107.992 0Z" fill="#2470B5"></path> <path d="M33.1881 15.5532C40.8906 15.5532 46.9638 21.7744 46.9638 29.1807C46.9638 36.7351 40.7425 42.8082 33.1881 42.8082C25.6337 42.8082 19.4125 36.5869 19.4125 29.1807C19.4125 21.7744 25.6337 15.5532 33.1881 15.5532ZM33.1881 37.9201C37.9281 37.9201 41.7794 34.0688 41.7794 29.4769C41.7794 24.7369 37.9281 21.0338 33.1881 21.0338C28.4481 21.0338 24.5969 24.885 24.5969 29.4769C24.5969 34.0688 28.4481 37.9201 33.1881 37.9201Z" fill="#2470B5"></path> <path d="M33.1888 34.0688C35.855 34.0688 37.9288 31.995 37.9288 29.3288C37.9288 26.6625 35.855 24.5888 33.1888 24.5888C30.5225 24.5888 28.4488 26.6625 28.4488 29.3288C28.4488 31.995 30.5225 34.0688 33.1888 34.0688Z" fill="#FEC400"></path> <path d="M19.8582 39.6974C19.8582 39.6974 15.4145 33.9205 16.3032 26.5143C14.0814 25.1812 10.082 23.9962 5.63822 17.3305C5.63822 21.1818 7.2676 28.1437 13.0445 32.5874C9.78572 32.2912 7.71197 31.4024 3.86072 29.3287C5.04572 33.328 7.71197 39.5493 19.8582 39.6974Z" fill="#2470B5"></path> <path d="M0.00864147 0C8.5999 8.44313 11.7105 9.62813 28.7449 11.9981C45.9274 14.3681 53.4818 31.5507 53.4818 31.5507V37.3275C52.7412 37.4757 52.2968 38.0682 52.2968 38.8088C52.2968 39.5494 52.7412 40.1419 53.4818 40.29V57.6207C53.4818 57.6207 53.1856 58.0651 52.5931 57.4726C52.8893 50.0663 48.8899 45.4744 46.8162 42.5119C49.7787 37.3275 49.4824 30.5138 49.4824 30.5138C49.4824 30.5138 42.0762 18.2194 26.3749 16.8863C1.34177 15.1088 -0.139484 1.185 0.00864147 0Z" fill="#2470B5"></path> </svg> 