<svg width="144" height="77" viewBox="0 0 144 77" fill="none" xmlns="http://www.w3.org/2000/svg">
<g clip-path="url(#clip0_46_78421)">
<path d="M99.7493 20.6482C89.4793 20.6482 81.3818 28.9074 81.3818 38.7399C81.3818 48.769 89.6768 56.8316 99.7493 56.8316C109.822 56.8316 118.117 48.5722 118.117 38.7399C118.117 28.9074 109.822 20.6482 99.7493 20.6482ZM99.7493 50.3422C93.4293 50.3422 88.2942 45.2292 88.2942 39.1331C88.2942 32.8403 93.4293 27.9242 99.7493 27.9242C106.069 27.9242 111.204 33.037 111.204 39.1331C111.204 45.2292 106.069 50.3422 99.7493 50.3422Z" fill="white"/>
<path d="M99.7487 45.2293C103.304 45.2293 106.069 42.4761 106.069 38.9365C106.069 35.3968 103.304 32.6437 99.7487 32.6437C96.1936 32.6437 93.4287 35.3968 93.4287 38.9365C93.4287 42.4761 96.1936 45.2293 99.7487 45.2293Z" fill="#FEC400"/>
<path d="M117.523 52.7017C117.523 52.7017 123.449 45.0324 122.263 35.2C125.226 33.4302 130.559 31.857 136.484 23.0077C136.484 28.1207 134.311 37.3632 126.609 43.2626C130.953 42.8693 133.719 41.6894 138.853 38.9364C137.471 44.2458 133.719 52.5051 117.523 52.7017Z" fill="white"/>
<path d="M143.989 0C132.534 11.209 128.386 12.7822 105.674 15.9285C82.7638 19.0749 72.6914 41.8863 72.6914 41.8863V49.5555C73.6789 49.7522 74.2714 50.5388 74.2714 51.522C74.2714 52.5052 73.6789 53.2918 72.6914 53.4884V76.4964C72.6914 76.4964 73.0863 77.0864 73.8763 76.2998C73.4814 66.4673 78.8138 60.3712 81.5789 56.4382C77.6289 49.7522 77.8263 40.7063 77.8263 40.7063C77.8263 40.7063 87.7014 24.3844 108.636 22.6146C142.212 20.0582 144.187 1.57319 143.989 0Z" fill="white"/>
<path d="M44.2513 20.6482C54.5213 20.6482 62.6189 28.9074 62.6189 38.7399C62.6189 48.769 54.3238 56.8316 44.2513 56.8316C34.1787 56.8316 25.8838 48.5722 25.8838 38.7399C25.8838 28.9074 34.1787 20.6482 44.2513 20.6482ZM44.2513 50.3422C50.5713 50.3422 55.7063 45.2292 55.7063 39.1331C55.7063 32.8403 50.5713 27.9242 44.2513 27.9242C37.9313 27.9242 32.7963 33.037 32.7963 39.1331C32.7963 45.2292 37.9313 50.3422 44.2513 50.3422Z" fill="white"/>
<path d="M44.2516 45.2293C47.8066 45.2293 50.5716 42.4761 50.5716 38.9365C50.5716 35.3968 47.8066 32.6437 44.2516 32.6437C40.6966 32.6437 37.9316 35.3968 37.9316 38.9365C37.9316 42.4761 40.6966 45.2293 44.2516 45.2293Z" fill="#FEC400"/>
<path d="M26.4774 52.7017C26.4774 52.7017 20.5525 45.0324 21.7374 35.2C18.775 33.4302 13.4425 31.857 7.51746 23.0077C7.51746 28.1207 9.68997 37.3632 17.3925 43.2626C13.0475 42.8693 10.2825 41.6894 5.14746 38.9364C6.72746 44.2458 10.2825 52.5051 26.4774 52.7017Z" fill="white"/>
<path d="M0.011522 0C11.4665 11.209 15.614 12.7822 38.3265 15.9285C61.2365 19.0749 71.3091 41.8863 71.3091 41.8863V49.5555C70.3216 49.7522 69.7291 50.5388 69.7291 51.522C69.7291 52.5052 70.3216 53.2918 71.3091 53.4884V76.4964C71.3091 76.4964 70.9141 77.0864 70.1241 76.2998C70.5191 66.4673 65.1865 60.3712 62.4216 56.4382C66.3716 49.5555 65.9765 40.5097 65.9765 40.5097C65.9765 40.5097 56.1016 24.1878 35.1665 22.418C1.78903 20.0582 -0.185979 1.57319 0.011522 0Z" fill="white"/>
</g>
<defs>
<clipPath id="clip0_46_78421">
<rect width="144" height="77" fill="white"/>
</clipPath>
</defs>
</svg>
