<svg width="416" height="494" viewBox="0 0 416 494" fill="none" xmlns="http://www.w3.org/2000/svg">
<path fill-rule="evenodd" clip-rule="evenodd" d="M119.001 2.02662C114.207 3.73641 108.177 9.25317 105.648 14.2417C104.313 16.8772 103.261 20.8829 102.76 25.2467C102.323 29.0419 101.968 66.2908 101.965 108.624L101.958 185.141H96.6836C72.6426 185.141 54.167 206.481 58.2801 229.496C58.857 232.725 60.0016 236.686 60.8234 238.297L62.3176 241.228L59.807 243.582C52.1176 250.791 51.2967 267.519 58.0771 278.843C66.8013 293.416 81.4347 301.482 95.295 299.358C98.2684 298.903 100.984 298.699 101.329 298.906C102.262 299.462 102.111 339.432 101.176 339.432C100.745 339.432 99.0273 337.766 97.3586 335.729C93.4376 330.945 83.9554 324.71 81.0557 325.01C74.619 325.677 70.8724 327.12 68.4683 329.858C65.7632 332.939 63.8589 338.546 64.4559 341.67C64.7628 343.277 64.4727 343.625 62.8224 343.625C56.6902 343.625 49.7512 349.278 48.262 355.487C46.8482 361.379 49.0922 370.323 53.0954 374.753C54.9158 376.768 55.7376 378.34 55.3267 379.022C54.8471 379.82 55.0458 379.803 56.0915 378.955C57.2973 377.977 57.9656 378.028 60.654 379.304C66.0005 381.842 74.5117 381.894 81.8313 379.435C86.3888 377.904 88.2864 377.589 88.7267 378.293C89.0604 378.826 90.3811 382.22 91.6624 385.834C94.1931 392.973 94.121 392.931 100.7 390.993C102.106 390.578 102.615 391.169 103.848 394.647C105.614 399.625 111.78 406.737 116.538 409.283L119.987 411.128H208.034H296.08L305.304 407.889C321.788 402.102 329.569 397.604 338.17 388.896C347.238 379.715 351.005 370.166 351.005 356.357C351.005 343.508 348.188 335.152 341.691 328.731C335.856 322.963 331.815 321.404 322.704 321.404C316.169 321.404 314.947 321.193 314.948 320.069C314.948 319.223 316.252 318.349 318.511 317.682C325.128 315.728 331.475 311.671 338.689 304.781C346.989 296.856 348.156 294.152 347.371 284.652C346.809 277.837 344.835 273.453 339.686 267.579C334.284 261.417 328.238 258.6 320.713 258.739L314.948 258.847V255.681C314.948 253.348 315.523 251.982 317.137 250.483C320.452 247.406 326.114 239.82 329.241 234.267C331.638 230.012 332.086 228.31 332.404 222.259C332.668 217.225 332.361 213.685 331.331 209.879C329.588 203.44 324.002 193.747 318.831 188.187L315.034 184.106L314.782 101.817L314.528 19.5287L312.329 14.9167C309.781 9.57433 305.974 5.47974 301.156 2.90038L297.758 1.08075L210.13 0.929809C134.385 0.798997 122.028 0.947418 119.001 2.02662ZM122.078 3.95107C117.983 5.21559 114.791 7.3044 111.667 10.7625C107.935 14.8924 106.302 18.4905 105.252 24.8978C104.802 27.6365 104.467 104.198 104.446 208.734C104.413 375.346 104.51 388.131 105.835 391.536C109.37 400.617 115.85 406.526 123.978 408.078C126.762 408.609 158.638 408.856 210.968 408.751L293.565 408.585L297.948 406.617C303.568 404.093 308.372 398.856 310.649 392.77L312.446 387.965L312.23 204.166C312.028 33.3009 311.912 20.1458 310.588 17.2227C308.244 12.0505 305.146 8.61924 300.486 6.03737L296.08 3.59637L210.13 3.44879C162.857 3.36829 123.233 3.59385 122.078 3.95107ZM23.7053 8.97394C14.5769 11.9759 7.19357 18.5048 2.76188 27.4948C0.231998 32.6275 0.0751953 33.4828 0.0751953 42.1693C0.0751953 50.3417 0.322569 51.9207 2.24618 56.0212C6.45986 65.0045 16.1157 73.431 25.301 76.1403C28.6401 77.1256 28.7567 77.2866 30.0623 82.7195C31.9197 90.4534 33.0265 93.1057 34.115 92.4332C35.3392 91.6768 40.7445 80.338 40.7445 78.5276C40.7445 77.5658 42.0886 76.6568 44.8843 75.7286C65.6441 68.8332 76.3087 46.0937 67.509 27.4864C64.3519 20.8116 56.6575 13.0744 50.2166 10.0967C43.6592 7.06626 31.1205 6.53546 23.7053 8.97394ZM29.6497 10.7701C23.016 11.7755 11.8206 17.2981 13.3392 18.8167C14.2918 19.7702 56.686 20.2741 57.6168 19.3433C58.171 18.7891 57.0306 17.5967 54.2257 15.7963C47.0738 11.207 38.4318 9.43933 29.6497 10.7701ZM181.277 20.4703C180.456 22.6086 182.899 24.8023 184.78 23.6157C185.578 23.1118 186.231 21.9864 186.231 21.1143C186.231 18.9568 182.065 18.4159 181.277 20.4703ZM200.487 20.7865C199.136 22.9726 201.721 23.3021 220.242 23.3021C238.92 23.3021 239.479 23.2535 239.479 21.625C239.479 19.9966 238.92 19.9479 220.242 19.9479C208.322 19.9479 200.808 20.2666 200.487 20.7865ZM12.6533 24.0719L7.62207 24.5599L5.26325 28.9623L2.9036 33.3646H34.8218C52.3759 33.3646 66.7393 33.1516 66.7393 32.8908C66.7393 32.6309 65.9594 30.605 65.006 28.3895C63.3163 24.4601 63.1662 24.3486 58.9266 23.8388C53.71 23.2124 19.7558 23.3834 12.6533 24.0719ZM117.23 35.4668C111.649 37.8911 112.019 25.9041 112.033 203.771C112.042 331.006 112.266 365.45 113.093 367.104C113.669 368.257 115.456 369.869 117.064 370.685C119.819 372.084 125.116 372.15 209.387 371.823C275.399 371.568 299.267 371.221 300.619 370.498C301.626 369.959 302.809 368.572 303.248 367.418C303.744 366.115 304.047 303.909 304.047 203.454C304.047 52.3911 303.951 41.428 302.616 39.1673C299.533 33.9482 304.371 34.1998 207.907 34.2358C133.615 34.2635 119.559 34.4547 117.23 35.4668ZM23.3036 37.3284L2.08853 37.5867L2.3401 42.3932L2.59082 47.2005L35.0155 47.4202L67.4403 47.6391L67.9946 45.1142C68.678 42.0024 67.7891 37.5791 66.4634 37.4944C61.8497 37.1976 40.7302 37.1162 23.3036 37.3284ZM119.781 37.6554C114.082 39.3015 114.501 25.4437 114.739 204.357C114.952 363.665 114.983 366.421 116.583 367.591C117.965 368.602 131.844 368.781 208.483 368.781C294.872 368.781 298.815 368.715 300.143 367.248C301.424 365.833 301.531 354.186 301.531 216.739V67.7641L268.688 67.5452C243.317 67.3758 235.765 67.0874 235.496 66.2774C235.22 65.4506 242.158 65.2292 268.339 65.2292H301.531V53.4343C301.531 46.9473 301.161 40.9492 300.71 40.1056C300.259 39.2621 298.693 38.1552 297.231 37.6454C293.849 36.4664 123.866 36.4764 119.781 37.6554ZM127.516 48.7275C122.417 53.8267 123.097 61.6385 128.951 65.2074C139.926 71.8989 151.324 57.3486 141.883 48.6965C139.306 46.3343 138.269 45.9427 134.59 45.9427C130.85 45.9427 129.944 46.2991 127.516 48.7275ZM129.173 51.3555C123.59 56.9377 130.122 66.3101 137.458 63.2444C141.101 61.7216 142.543 59.7334 142.543 56.2375C142.543 49.982 133.755 46.7729 129.173 51.3555ZM4.47838 51.6725C3.16271 52.1932 3.29436 52.6854 5.74793 56.4354L8.48409 60.6172H35.3023H62.1206L64.3687 56.4547C65.6047 54.1655 66.4332 51.9962 66.2093 51.6331C65.7095 50.8239 6.5261 50.8616 4.47838 51.6725ZM12.234 65.1294C12.234 66.1398 16.9626 69.66 21.0387 71.6851C29.5164 75.8963 36.7664 76.1881 45.0948 72.6545C50.7097 70.2722 57.5153 66.1642 57.5153 65.1571C57.5153 64.7126 47.9937 64.3906 34.8747 64.3906C22.3729 64.3906 12.234 64.7219 12.234 65.1294ZM215.168 65.1864C214.245 65.7851 214.163 66.2438 214.857 66.9373C216.197 68.2773 220.612 67.6106 220.612 66.0677C220.612 64.586 216.997 64.0007 215.168 65.1864ZM361.55 71.9425C350.335 73.9425 342.022 78.261 334.234 86.1332C324.75 95.7202 320.987 106.31 321.901 120.838C322.66 132.911 326.345 141.602 334.298 150.072C336.569 152.491 338.427 154.904 338.427 155.434C338.427 155.964 336.149 161.217 333.366 167.106C330.582 172.995 328.499 178.008 328.737 178.246C329.397 178.906 335.089 174.9 342.355 168.662C345.959 165.567 349.512 162.53 350.251 161.912C351.377 160.971 352.527 161.008 357.379 162.146C361.576 163.131 365.694 163.4 372.388 163.126C382.887 162.695 386.241 161.635 394.769 156.049C408.302 147.187 415.573 133.761 415.573 117.638C415.573 92.948 397.053 73.2624 372.3 71.6398C368.659 71.4017 363.821 71.5375 361.55 71.9425ZM355.149 76.3709C339.498 81.7065 327.819 94.215 324.971 108.692C323.619 115.563 324.35 126.362 326.597 132.732C328.767 138.882 334.969 148.166 338.925 151.183C342.352 153.797 342.375 153.622 337.135 164.806C335.137 169.072 333.723 172.563 333.993 172.563C334.264 172.563 338.203 169.132 342.747 164.939L351.008 157.316L356.2 159.07C362.55 161.214 373.507 161.422 380.744 159.537C395.459 155.704 409.139 141.718 412.126 127.45C415.238 112.591 410.642 97.2556 399.908 86.6782C391.144 78.0429 381.78 74.4364 368.229 74.4749C362.625 74.4909 359.214 74.9856 355.149 76.3709ZM133.91 82.7664C133.267 83.174 132.971 84.1123 133.255 84.8502C133.708 86.0309 136.248 86.1927 154.291 86.1927C174.962 86.1927 177.091 85.885 174.881 83.2209C174.047 82.2155 170.442 82.0025 154.474 82.0126C143.807 82.0201 134.554 82.3589 133.91 82.7664ZM347.752 89.3373C345.82 96.9126 345.793 97.7763 347.454 98.666C350.774 100.443 389.903 109.672 394.116 109.672C395.918 109.672 396.275 109.137 397.059 105.27C398.949 95.945 401.434 97.5147 375.323 91.5309C362.64 88.6245 351.428 86.2346 350.409 86.2196C348.959 86.1986 348.379 86.8786 347.752 89.3373ZM349.851 89.998C349.579 90.7074 349.822 91.4613 350.39 91.6734C352.353 92.4071 375.765 98.0396 383.591 99.6605C393.581 101.73 396.503 101.777 396.134 99.8618C395.915 98.7247 391.542 97.4627 374.481 93.6138C362.722 90.9615 352.482 88.7729 351.724 88.7494C350.965 88.7268 350.123 89.2886 349.851 89.998ZM348.641 96.0053C348.932 97.5172 355.534 99.3964 378.826 104.596C392.29 107.602 394.609 107.759 394.609 105.67C394.609 104.448 392.913 103.841 385.048 102.25C379.79 101.186 370.262 99.0291 363.875 97.4569C350.479 94.1589 348.244 93.9459 348.641 96.0053ZM134.661 104.991C134.661 108.874 134.432 112.647 134.152 113.377C133.718 114.509 134.513 114.703 139.603 114.703H145.562V106.318V97.9323H140.112H134.661V104.991ZM157.092 98.8379C155.026 100.041 154.904 113.408 156.951 114.194C157.681 114.474 167.257 114.703 178.231 114.703C194.856 114.703 198.358 114.495 199.219 113.458C200.71 111.661 200.026 99.788 198.372 98.7415C196.665 97.6623 158.959 97.7503 157.092 98.8379ZM137.177 106.318V111.349H140.112H143.047V106.318V101.286H140.112H137.177V106.318ZM158.655 103.436C158.372 104.174 158.14 106.041 158.14 107.586C158.14 111.109 157.349 110.993 179.358 110.687L196.802 110.445L196.548 106.495L196.294 102.544L177.732 102.319C161.355 102.12 159.11 102.252 158.655 103.436ZM54.863 105.706C43.8932 111.369 39.4816 124.135 44.8558 134.669C47.0696 139.008 53.6211 144.714 57.1505 145.375C59.6989 145.853 60.155 146.424 62.2363 151.727C63.4933 154.932 64.8894 157.782 65.3389 158.059C66.6227 158.852 68.2537 155.98 69.3832 150.935C70.2368 147.121 70.8724 146.066 72.9822 144.968C77.9011 142.405 84.7687 134.707 85.9729 130.405C88.8885 119.99 82.3487 107.954 71.7412 104.211C65.9066 102.153 60.8871 102.597 54.863 105.706ZM56.1309 107.948C47.0386 112.55 47.3027 112.717 64.4349 113.248C72.8505 113.508 79.8851 113.574 80.0662 113.394C80.7043 112.759 78.151 110.389 74.5629 108.287C72.2661 106.941 69.161 106.008 66.1104 105.748C61.9143 105.391 60.6196 105.676 56.1309 107.948ZM337.16 116.436C336.843 118.312 336.715 119.937 336.876 120.048C337.037 120.159 340.754 121.135 345.135 122.217C349.516 123.299 353.625 124.594 354.264 125.093C355.171 125.8 356.254 125.078 359.181 121.819L362.936 117.638L362.481 120.992C362.231 122.837 361.767 126.086 361.449 128.212L360.871 132.079L372.499 134.853C378.895 136.379 385.795 137.658 387.835 137.696L391.542 137.763L393.03 131.915C394.163 127.465 394.28 125.918 393.516 125.444C391.369 124.112 364.591 117.88 360.229 117.697C357.692 117.59 351.981 116.496 347.538 115.265C343.094 114.033 339.071 113.026 338.597 113.026C338.123 113.026 337.477 114.561 337.16 116.436ZM339.265 117.149C339.265 118.412 340.21 118.956 343.668 119.685C346.089 120.195 349.896 121.211 352.129 121.943C355.065 122.906 356.44 123.02 357.104 122.356C357.608 121.852 357.814 121.232 357.56 120.979C357.198 120.616 340.321 115.542 339.477 115.542C339.36 115.542 339.265 116.265 339.265 117.149ZM48.0339 116.967C46.6034 117.339 44.9321 120.335 44.9414 122.514C44.9439 123.249 50.0749 123.531 64.6471 123.598C81.1697 123.673 84.3486 123.495 84.3486 122.495C84.3486 120.982 82.7059 117.828 81.4976 117.022C80.5081 116.361 50.5613 116.312 48.0339 116.967ZM364.841 122.25C363.85 123.854 365.331 124.667 371.776 126.053C375.34 126.819 380.982 128.122 384.311 128.949C389.544 130.247 390.499 130.288 391.361 129.25C392.004 128.476 392.069 127.76 391.547 127.238C390.814 126.505 368.801 121.411 366.369 121.411C365.814 121.411 365.126 121.789 364.841 122.25ZM133.974 127.491L134.242 129.378L166.106 129.58C183.702 129.692 198.495 129.448 199.142 129.035C199.785 128.625 200.08 127.685 199.797 126.947C199.336 125.748 195.783 125.604 166.494 125.604H133.706L133.974 127.491ZM45.6055 130.426L47.0822 134.409L60.0552 134.975C67.1904 135.286 74.8044 135.701 76.9762 135.896C80.7085 136.233 80.9903 136.111 82.1525 133.653C82.8275 132.224 83.6392 130.017 83.9554 128.749L84.5306 126.443H64.3293H44.128L45.6055 130.426ZM228.608 128.502C228.051 129.174 227.838 130.117 228.136 130.599C228.492 131.176 237.453 131.474 254.454 131.474C280.769 131.474 283.574 131.152 281.284 128.391C279.856 126.672 230.04 126.777 228.608 128.502ZM363.269 128.566C362.795 129.804 365.548 131.474 368.061 131.474C368.619 131.474 373.712 132.606 379.378 133.99C385.044 135.373 389.845 136.505 390.048 136.505C390.25 136.505 390.416 135.611 390.416 134.519C390.416 132.939 389.858 132.429 387.691 132.03C386.192 131.754 380.86 130.573 375.842 129.404C365.196 126.927 363.931 126.843 363.269 128.566ZM345.605 134.98C344.934 137.047 343.458 144.966 343.458 146.507C343.458 148.325 345.512 149.223 355.198 151.639C359.118 152.618 362.45 153.542 362.603 153.694C362.755 153.846 362.45 154.775 361.924 155.758C361.033 157.422 361.087 157.471 362.694 156.467C363.644 155.874 364.422 155.102 364.422 154.754C364.422 154.405 365.795 152.599 367.474 150.74C369.153 148.882 370.331 147.166 370.092 146.927C369.853 146.688 364.612 145.255 358.444 143.743C348.565 141.319 347.266 140.8 347.521 139.377C347.68 138.489 347.934 137.635 348.085 137.478C348.237 137.321 352.314 138.036 357.146 139.068C361.977 140.098 366.629 140.673 367.482 140.344C369.844 139.434 367.865 138.668 357.713 136.561C352.871 135.555 348.246 134.54 347.437 134.303C346.628 134.067 345.803 134.372 345.605 134.98ZM51.2262 139.01C55.6923 143.981 66.5975 146.033 72.1898 142.955C76.0253 140.845 78.0026 139.104 77.33 138.431C76.9963 138.098 70.6091 137.671 63.136 137.484L49.5492 137.143L51.2262 139.01ZM228.33 138.457C227.196 141.413 228.61 141.566 255.049 141.339C280.354 141.122 280.987 141.076 280.987 139.44C280.987 137.803 280.354 137.758 254.876 137.542C233.532 137.361 228.687 137.527 228.33 138.457ZM345.565 144.745C344.856 146.594 345.619 146.984 353.921 149.023C358.061 150.039 361.835 151.186 362.306 151.572C362.817 151.99 363.777 151.455 364.677 150.251C366.491 147.825 366.973 148.065 355.027 145.447C347.203 143.733 345.989 143.643 345.565 144.745ZM228.303 148.591C227.236 151.369 229.725 151.627 255.512 151.402C280.354 151.186 280.987 151.138 280.987 149.503C280.987 147.866 280.354 147.82 254.876 147.604C232.772 147.416 228.695 147.568 228.303 148.591ZM132.146 157.049C131.313 158.053 131.313 158.561 132.146 159.565C133.654 161.383 205.197 161.468 206.702 159.654C207.451 158.752 207.365 158.178 206.325 157.138C205.131 155.943 200.925 155.792 169.084 155.792C138.201 155.792 133.044 155.967 132.146 157.049ZM228.136 158.344C227.838 158.826 228.051 159.769 228.608 160.441C230.064 162.194 262.55 162.256 263.222 160.506C264.235 157.865 261.885 157.469 245.23 157.469C234.636 157.469 228.482 157.784 228.136 158.344ZM162.783 167.333C145.295 167.46 132.294 167.886 131.835 168.345C131.338 168.842 131.442 169.618 132.116 170.431C133.052 171.559 137.711 171.724 168.564 171.724C197.953 171.724 204.215 171.521 205.567 170.522C206.89 169.546 206.995 169.118 206.124 168.236C204.912 167.008 205.498 167.021 162.783 167.333ZM132.774 179.104C130.75 179.504 130.934 181.527 133.099 182.686C135.601 184.025 204.667 183.392 206.042 182.017C206.568 181.491 206.758 180.435 206.465 179.67C205.977 178.399 202.85 178.301 170.086 178.546C150.372 178.693 133.581 178.944 132.774 179.104ZM84.8492 190.166C82.1265 191.036 77.8994 193.124 75.4559 194.807C71.1793 197.752 65.0622 204.289 65.0622 205.912C65.0622 208.18 99.0717 238.807 101.591 238.807C101.793 238.807 101.958 235.618 101.958 231.722C101.958 226.767 101.627 224.434 100.856 223.965C100.25 223.596 97.367 219.898 94.4497 215.747C91.5324 211.597 87.6726 206.587 85.8723 204.616C80.5333 198.769 82.8954 197.909 93.29 201.911C96.8832 203.295 100.304 204.427 100.891 204.427C101.68 204.427 101.958 202.351 101.958 196.461V188.495L95.8786 188.54C92.3542 188.566 87.7187 189.249 84.8492 190.166ZM314.852 216.376C314.799 231.25 314.631 244.482 314.479 245.78C314.297 247.327 314.547 248.028 315.203 247.814C317.07 247.205 324.238 237.581 327.148 231.777C329.583 226.919 330.041 225.115 330.041 220.399C330.041 213.545 328.316 207.371 324.451 200.395C321.405 194.9 317.002 189.333 315.699 189.333C315.274 189.333 314.906 201.061 314.852 216.376ZM87.7028 203.388C87.7028 203.847 88.2697 204.692 88.9631 205.267C89.6558 205.843 92.5638 209.473 95.4241 213.337C98.2852 217.199 100.942 220.359 101.327 220.359C101.713 220.359 101.919 217.469 101.784 213.937L101.539 207.515L96.0882 205.485C88.4122 202.627 87.7028 202.45 87.7028 203.388ZM62.0392 212.603C59.6377 217.518 59.9446 228.544 62.6639 235.034C64.6094 239.678 64.9599 240.049 67.2231 239.854C79.922 238.757 88.6545 238.772 93.9919 239.902C97.2203 240.585 99.9891 241.026 100.144 240.881C100.299 240.737 99.356 239.947 98.0479 239.125C92.2494 235.487 80.7479 225.687 73.1507 217.913C68.6067 213.263 64.5934 209.458 64.232 209.458C63.8714 209.458 62.8845 210.874 62.0392 212.603ZM144.514 216.225C143.707 216.7 143.047 217.636 143.047 218.305C143.047 218.973 143.707 219.541 144.514 219.566C159.914 220.045 279.518 219.227 280.106 218.64C280.609 218.137 280.516 217.457 279.855 216.796C278.484 215.425 146.819 214.87 144.514 216.225ZM143.443 227.943C143.145 228.424 143.359 229.368 143.915 230.04C145.375 231.799 276.875 231.887 279.278 230.13C280.128 229.508 280.555 228.565 280.227 228.034C279.419 226.727 144.25 226.638 143.443 227.943ZM70.932 242.462C70.932 242.627 74.422 244.562 78.6885 246.763C82.955 248.965 89.743 252.792 93.773 255.268C97.8039 257.745 101.309 259.771 101.562 259.771C101.816 259.771 101.914 256.492 101.781 252.486L101.539 245.199L94.8304 243.707C89.0931 242.43 70.932 241.484 70.932 242.462ZM64.2236 244.433C62.0216 245.243 59.9026 247.514 58.156 250.936C56.0344 255.093 55.9061 265.843 57.9102 271.474C61.0623 280.33 69.431 289.54 78.2692 293.88C82.4225 295.92 84.0786 296.246 90.2184 296.233C94.1386 296.226 98.3841 295.935 99.652 295.588C101.84 294.99 101.958 294.7 101.958 289.953C101.958 285.104 101.874 284.914 99.2327 283.795C95.9314 282.396 69.2549 262.518 69.2549 261.456C69.2549 261.043 70.0934 260.117 71.119 259.399C73.2279 257.922 79.4859 257.749 89.3799 258.896C92.8389 259.297 95.7704 259.525 95.8954 259.402C96.3012 259.001 82.4166 250.809 75.3528 247.283C68.6469 243.935 66.8382 243.472 64.2236 244.433ZM144.329 248.329C143.377 249.025 142.979 250 143.303 250.845C143.772 252.066 145.929 252.224 162.204 252.224C177.511 252.224 180.75 252.014 181.619 250.966C182.452 249.962 182.452 249.454 181.619 248.451C180.159 246.69 146.719 246.581 144.329 248.329ZM143.331 260.24C143.052 260.967 143.178 261.915 143.612 262.349C144.092 262.829 166.153 263.053 200.115 262.921C255.2 262.708 255.83 262.686 255.83 261.029C255.83 259.371 255.2 259.349 199.833 259.136C149.53 258.942 143.785 259.055 143.331 260.24ZM73.6572 260.326C73.0811 260.559 72.6091 261.04 72.6091 261.396C72.6091 262.098 91.82 276.579 97.4634 280.131C99.3728 281.333 101.166 282.086 101.447 281.805C101.728 281.523 101.958 277.213 101.958 272.225C101.958 261.614 103.657 262.91 87.2835 261.035C75.6211 259.699 75.2588 259.68 73.6572 260.326ZM316.834 262.265L314.948 263.071V289.184V315.297L317.254 314.734C324.792 312.893 339.981 301.676 343.197 295.572C345.374 291.443 345.19 282.117 342.84 277.347C340.538 272.678 333.665 265.519 329.656 263.616C325.998 261.881 319.368 261.181 316.834 262.265ZM143.606 270.393C142.732 271.266 142.937 272.12 144.364 273.547C145.522 274.704 150.101 274.865 181.996 274.865C212.026 274.865 218.478 274.663 219.28 273.696C220.029 272.793 219.943 272.22 218.904 271.18C217.708 269.984 213.437 269.833 180.861 269.833C160.678 269.833 143.913 270.085 143.606 270.393ZM191.472 314.066C127.814 314.284 127.114 314.305 127.114 315.958C127.114 317.616 127.752 317.63 202.514 317.63C243.984 317.63 278.511 317.401 279.241 317.121C279.97 316.841 280.567 316.127 280.567 315.534C280.567 313.732 278.376 313.429 266.872 313.642C260.8 313.754 226.869 313.946 191.472 314.066ZM316.819 325.369L314.917 326.286L315.142 345.227L315.367 364.169L321.144 364.42C326.008 364.63 327.641 364.319 331.464 362.449C338.606 358.954 345.912 348.655 345.955 342.022C345.992 336.276 339.515 328.975 331.357 325.566C327.955 324.145 319.594 324.032 316.819 325.369ZM76.8018 330.319C76.8018 332.991 80.1106 337.887 81.7089 337.579C83.3659 337.26 83.843 335.181 83.1302 331.382C82.6447 328.794 82.3294 328.531 79.6989 328.531C77.3007 328.531 76.8018 328.839 76.8018 330.319ZM127.114 330.187C127.114 331.22 127.83 332.027 129.001 332.311C130.039 332.561 157.113 332.663 189.166 332.536C246.809 332.307 247.445 332.286 247.445 330.628C247.445 328.968 246.814 328.948 187.28 328.735C127.726 328.522 127.114 328.537 127.114 330.187ZM71.555 330.279C69.4402 331.511 66.7384 337.219 66.7426 340.447C66.7451 342.704 67.774 344.285 72.4028 349.147C75.5138 352.415 79.6629 357.796 81.6234 361.107C87.1963 370.519 86.6077 370.903 77.6403 363.705C69.9467 357.529 64.4467 354.799 58.2348 354.071C51.3487 353.265 49.9684 353.914 49.9684 357.964C49.9684 361.483 51.9063 367.104 53.1197 367.104C53.5163 367.104 54.5729 366.55 55.4684 365.873C57.6092 364.253 58.0528 364.288 59.9856 366.22C61.6032 367.838 61.6007 367.884 59.776 371.216C57.9404 374.568 57.9396 374.582 59.6117 375.812C61.9118 377.505 71.1768 379.158 74.957 378.552C76.6634 378.278 81.1731 377.022 84.9775 375.76C91.4444 373.616 91.8955 373.314 91.8955 371.124C91.8955 368.315 93.1734 368.022 93.8829 370.668C94.8866 374.414 94.4975 376.328 92.7341 376.328C91.8117 376.328 91.057 376.422 91.0578 376.538C91.0587 377.017 94.5923 386.001 95.2992 387.322C95.9524 388.542 96.5058 388.621 99.0122 387.852L101.958 386.947V365.409V343.87L96.0262 337.867C92.7642 334.565 88.9522 331.274 87.5561 330.552L85.0178 329.239L85.567 332.488C86.0039 335.079 85.754 336.197 84.3327 338.004C83.3524 339.251 82.0452 340.271 81.4272 340.271C79.652 340.271 76.0831 335.473 75.4836 332.28C74.9176 329.259 74.0572 328.821 71.555 330.279ZM59.2997 347.106C57.7451 347.553 55.351 348.745 53.9817 349.755L51.4904 351.591L57.3065 352.123C64.4375 352.775 69.0637 354.763 75.2781 359.85C77.8986 361.995 80.2809 363.75 80.5718 363.75C80.8637 363.75 79.5086 361.479 77.5623 358.704C73.5801 353.028 67.3933 346.979 65.5687 346.979C64.9045 346.979 63.858 346.825 63.2442 346.636C62.6296 346.448 60.8552 346.66 59.2997 347.106ZM344.789 353.345C341.802 359.05 335.47 364.849 330.306 366.608C328.151 367.342 323.814 367.943 320.668 367.943H314.948V377.853C314.948 384.508 314.506 389.252 313.602 392.294C312.221 396.942 308.248 403.52 306.363 404.28C305.605 404.585 305.589 404.725 306.306 404.772C308.23 404.9 319.826 399.123 325.971 394.976C333.25 390.064 341.643 381.4 344.136 376.221C346.843 370.6 348.491 363.172 348.477 356.656C348.459 348.516 347.682 347.819 344.789 353.345ZM54.977 367.664C53.8366 368.434 52.7583 369.177 52.5805 369.315C52.0958 369.693 54.9376 373.813 55.6831 373.813C56.5828 373.813 59.2117 367.814 58.6859 366.962C58.0603 365.95 57.3048 366.094 54.977 367.664ZM204.435 381.034C194.786 385.952 194.852 398.878 204.55 404.024C209.077 406.424 213.133 405.831 217.318 402.157C222.572 397.544 223.835 393.227 221.539 387.732C218.949 381.534 210.187 378.102 204.435 381.034ZM205.085 383.737C202.061 385.329 199.232 389.691 199.231 392.765C199.229 394.973 202.294 399.547 205.233 401.724C208.465 404.118 212.918 403.087 217.007 398.998C219.629 396.375 220.192 395.221 220.192 392.473C220.192 388.684 218.028 385.372 214.29 383.439C211.108 381.794 208.623 381.874 205.085 383.737ZM373.604 383.29C358.848 387.463 351.507 402.442 356.972 417.228C359.683 424.564 359.711 425.849 357.339 433.432C356.127 437.306 354.935 441.137 354.69 441.944C353.943 444.413 355.74 443.624 362.812 438.38C366.545 435.613 370.085 433.349 370.68 433.349C371.277 433.349 373.118 433.915 374.774 434.607C385.497 439.087 401.069 432.075 406.91 420.136C413.08 407.526 406.933 391.741 393.246 385.045C387.827 382.393 379.427 381.643 373.604 383.29ZM376.08 385.648C372.174 386.222 367.455 388.228 366.546 389.7C365.996 390.589 366.583 390.757 385.804 395.186C393.184 396.886 400.447 398.591 401.946 398.975C403.446 399.359 404.672 399.366 404.672 398.992C404.672 397.393 396.791 389.733 393.515 388.147C389.122 386.021 381.231 384.89 376.08 385.648ZM361.981 394.05C360.257 395.901 358.946 398.804 359.558 399.416C360.174 400.032 403.54 410.708 405.428 410.708C407.202 410.708 407.295 410.461 406.76 407.145C406.443 405.185 405.749 403.154 405.218 402.632C404.687 402.11 395.762 399.735 385.385 397.355C375.008 394.975 365.887 392.838 365.117 392.608C364.323 392.371 362.963 392.997 361.981 394.05ZM357.227 405.321C356.917 406.969 356.995 408.618 357.399 408.985C358.995 410.436 398.51 420.771 402.459 420.771C404.002 420.771 404.734 420.12 405.428 418.13C406.957 413.742 406.713 413.472 399.85 411.97C396.275 411.189 386.16 408.698 377.369 406.436C368.58 404.174 360.579 402.323 359.589 402.323C358.189 402.323 357.665 402.989 357.227 405.321ZM358.182 414.272C359.761 419.39 364.041 425.133 367.666 426.997C368.879 427.621 374.513 429.144 380.185 430.382L390.498 432.633L394.488 430.072C396.684 428.664 399.326 426.61 400.361 425.509L402.241 423.506L387.734 419.913C379.755 417.937 370.235 415.434 366.58 414.353C358.17 411.864 357.437 411.856 358.182 414.272ZM361.529 426.842C361.347 427.423 360.571 429.882 359.806 432.304C359.041 434.728 358.544 437.101 358.704 437.578C358.966 438.365 368.522 431.814 368.542 430.833C368.547 430.603 367.045 429.373 365.206 428.1C362.89 426.498 361.757 426.111 361.529 426.842ZM375.172 432.695C375.661 433.185 378.065 433.727 380.514 433.901C385.731 434.269 383.778 433.036 377.946 432.28C375.36 431.944 374.543 432.066 375.172 432.695ZM191.263 444.692C183.048 446.738 175.049 450.274 162.543 457.387C158.553 459.657 158.281 460.758 160.172 466.99C165.197 483.547 178.328 493.043 196.294 493.111C205.512 493.146 212.485 491.467 221.537 487.032C228.728 483.508 241.35 473.389 241.86 470.74C242.029 469.867 240.925 467.92 239.27 466.169C237.684 464.491 234.641 460.801 232.506 457.971C225.634 448.858 216.489 444.327 203.841 443.77C198.894 443.552 194.56 443.87 191.263 444.692ZM195.875 448.46C189.337 449.145 184.577 450.413 178.559 453.075C173.529 455.299 172.676 456.273 176.792 455.092C184 453.025 191.912 455.133 196.246 460.273C198.769 463.265 200.906 467.634 200.906 469.799C200.906 472.142 197.808 471.21 196.699 468.533C193.082 459.8 183.683 456.28 173.174 459.721C171.132 460.39 167.856 461.348 165.897 461.85C163.937 462.352 162.333 463.263 162.333 463.875C162.333 464.487 163.67 467.66 165.302 470.924C171.064 482.44 179.773 487.725 194.233 488.481C203.207 488.951 212.909 487.036 220.612 483.273C225.11 481.075 235.932 472.561 236.67 470.638C237.101 469.514 233.139 464.123 226.93 457.385C220.441 450.342 209.078 447.077 195.875 448.46ZM143.455 456.66C135.2 459.514 122.922 468.679 122.922 471.987C122.922 474.714 125.694 473.846 131.273 469.369C138.42 463.632 144.042 460.924 149.906 460.392C154.935 459.936 157.008 458.619 156.164 456.42C155.493 454.671 148.841 454.797 143.455 456.66ZM249.541 465.839C247.353 466.59 245.349 468.771 245.349 470.401C245.349 472.436 247.645 473.3 249.678 472.031C251.003 471.204 251.732 471.39 254.027 473.14C260.94 478.413 272.174 479.6 280.987 475.99C288.251 473.013 293.307 469.604 292.979 467.904C292.533 465.586 289.973 465.764 285.777 468.404C280.388 471.796 276.062 473.057 269.973 473.011C264.867 472.973 260.127 471.258 253.315 466.985C251.931 466.117 250.233 465.602 249.541 465.839Z" fill="white" fill-opacity="0.852"/>
</svg>
